<?xml version="1.0" encoding="UTF-8"?>
<svg id="Layer_2" data-name="Layer 2" xmlns="http://www.w3.org/2000/svg" viewBox="0 0 71.69 36.17">
  <defs>
    <style>
      .cls-1 {
        fill: #231f20;
      }

      .cls-2 {
        fill: #fff;
      }
    </style>
  </defs>
  <g id="A4.Cover.Pink">
    <g id="B">
      <g>
        <path class="cls-1" d="M16.98,34.67c-1.27,0-2.52-.17-3.7-.52-2.47-.7-4.79-2.18-6.87-4.41-3.07-3.37-4.71-6.82-4.9-10.27v-.22s.02-.12.02-.12c.25-1.66,1.55-2.65,3.48-2.65.83,0,1.69.17,2.26.28.15.03.28.06.41.08,3.34.77,6.53,2.42,10.15,5.2.68.49,1.99,1.42,2.66,1.87,1.11.74,2.08,1.3,3,1.71.04-.06.09-.13.13-.19.36-.63.37-1-.33-1.72-1.11-1.16-2.62-2.15-3.96-3.02l-.27-.18c-1.85-1.2-3.84-2.32-5.73-3.37-.45-.26-.9-.49-1.39-.73-1.92-.98-4.3-2.19-5.46-4.66l-.05-.11c-1.23-3.27,1.18-6.14,3.63-7.61,2.45-1.61,5.52-2.55,8.37-2.55s5.37.92,7.29,2.66l.14.14.06.08c.9,1.04.92,2.07.77,2.74-.41,1.82-2.42,2.71-4.04,3.43-.45.2-1.05.46-1.27.63,0,0-.2.13-.24.16.48.52.6,1.28.31,1.94-.15.33-.38.6-.66.79,1.13.67,2.23,1.37,3.28,2.09,1.03.74,2.38,1.7,3.54,2.94.46-1.15,1.2-2.18,2.17-2.94,1.22-.93,2.71-1.44,4.23-1.44s3.09.57,4.22,1.6c.19.18.35.37.5.57.4-.16.82-.25,1.25-.25.61,0,1.18.19,1.65.53.08-.05.17-.1.27-.15.31-.17.68-.26,1.11-.26.36,0,.7.07,1.01.19.78-.72,1.72-1.41,2.89-1.75.38-.12.81-.19,1.25-.19,2.12,0,3.9,1.52,4.13,3.54.02.13.04.26.05.39,1.31-1.76,3.04-3.24,5.62-3.6.24-.02.38-.03.53-.03,2.38,0,3.37,1.72,3.97,2.76.26.45.52.9.79,1.11.18.13.48.21.85.21.6,0,1.31-.25,1.84-.66l.33-.23c.44-.31.99-.7,1.73-.89l.17-.06h.27c.9,0,1.64.64,1.76,1.49.11.88-.41,1.68-1.25,1.91-.1.03-.33.19-.51.33-.15.11-.28.21-.4.29-1.11.86-2.46,1.33-3.82,1.33-.22,0-.44-.01-.64-.03-1.54-.1-3.13-1.01-4.16-2.43-.16-.21-.4-.52-.56-.68-.1.05-.29.16-.54.38-.9.83-1.4,2.2-1.98,3.79-.58,1.62-1.24,3.42-2.47,4.87-.28.33-.88.96-1.68,1.29-.44.22-1,.35-1.58.35-1.97,0-3.38-1.52-3.7-2.95-.3-1.37-.15-2.4-.01-3.4,0,0,.09-.62.12-.79l-.12.22c-.65,1.21-1.32,2.45-2.32,3.72l-.05.07-.12.13-1.17-.95,1.08,1.04c-.13.13-.24.26-.54.47-.55.43-1.26.68-2.01.68-1.37,0-2.57-.8-3.1-1.98-.39.35-.8.67-1.24.94-.74.49-1.55.81-2.4.97-.57.44-1.2.84-1.87,1.19-1.83.98-3.92,1.49-6.19,1.49-.17,0-.35,0-.53,0-.3.24-.6.47-.91.68-2.5,1.74-5.53,2.7-8.51,2.7ZM5.98,21.03c.59,1.88,1.82,3.74,3.67,5.54,1.5,1.45,3.18,2.39,4.84,2.74.55.12,1.12.18,1.71.18.83,0,1.69-.12,2.51-.35-.35-.16-.69-.33-1.04-.52-2.46-1.3-4.62-2.98-6.03-4.13-1.7-1.38-3.28-2.67-5.1-3.27-.19-.06-.38-.12-.57-.17ZM34.19,20.81s-.02.14.03.32c.03.12.08.19.12.23.11-.01.35-.07.76-.26.02-.08.04-.15.05-.23.06-.3.06-.53.05-.69-.45.13-.88.46-1.01.62h0ZM12.19,9.58c.47.37,1.1.67,1.83,1.01l.55.26c.9.4,1.92.89,2.94,1.42-.14-.48-.18-.98-.09-1.46.18-1.03.89-1.94,2-2.56.42-.28.94-.5,1.53-.76.53-.23,1.39-.6,1.86-.92-.53-.28-1.38-.39-1.74-.44-.23-.02-.51-.03-.79-.03-2.99,0-5.5,1.41-7.07,2.59-.22.17-.73.56-1.02.89Z"/>
        <path class="cls-2" d="M18.42,3c2.47,0,4.65.79,6.29,2.27h0s0,.02,0,.02c.44.51.6,1.01.49,1.5-.25,1.09-1.82,1.78-3.2,2.4-.61.27-1.19.53-1.54.78-.43.26-.94.67-1.01,1.21-.04.36.13.75.52,1.15.1.1.12.24.07.36-.06.13-.18.21-.32.21-.1,0-.19-.04-.26-.12-.49-.56-.69-1.14-.59-1.7.11-.61.56-1.15,1.31-1.55.33-.23.84-.44,1.41-.69,1.19-.52,2.67-1.16,2.89-2.02.09-.33-.02-.68-.31-1.06-.69-.73-1.87-.97-2.93-1.11-.32-.03-.66-.04-.98-.04-3.4,0-6.21,1.56-7.97,2.89-.77.6-2.05,1.58-1.78,2.53.7.92,1.7,1.39,2.86,1.93.19.09.37.17.55.26.96.42,2.06.96,3.18,1.55,2.16,1.12,4.21,2.34,6.08,3.64,1.59,1.14,3.77,2.7,4.81,4.86.9,1.82.65,3.88-.68,5.82h.19c1.6,0,3.23-.4,4.63-1.13-2.17-.73-3.62-2.74-3.59-5.07,0-1.79.79-3.49,2.14-4.56.94-.72,2.11-1.11,3.3-1.11s2.36.43,3.21,1.2c.49.48.81,1.08.94,1.79.1-.11.21-.22.31-.32.41-.47.97-.76,1.51-.76.39,0,.73.15.95.42.19.22.37.64.23,1.35h0s0,.02,0,.02c-.17.56-.4,1.03-.64,1.53l-.14.29c-.32.62-.62,1.15-.91,1.61.28-.06.58-.15.89-.26.34-.97.71-1.95,1.07-2.89.14-.36.28-.73.41-1.09v-.02s.02-.01.02-.01v-.02c.18-.3.32-.53.75-.74.12-.07.3-.08.4-.08.15,0,.53.03.75.28.1.1.23.25.3.49h0s0,0,0,0c.9-.94,1.93-1.99,3.27-2.38.27-.09.54-.13.83-.13,1.36,0,2.5.95,2.64,2.21.12.81.15,1.52.19,2.27,0,.17.02.35.02.53v.23c.04.69.07,1.46.12,2.19.14-.25.27-.5.41-.77,1.47-2.74,3.14-5.86,6.62-6.34.11,0,.21-.01.32-.01,1.51,0,2.1,1.02,2.67,2.01.32.56.65,1.13,1.14,1.53.5.36,1.1.54,1.78.54.93,0,1.95-.36,2.75-.96.1-.06.19-.13.29-.2.39-.28.79-.56,1.28-.67h.02s.04,0,.04,0c.12,0,.22.09.24.21.02.12-.06.23-.17.26-.37.11-.69.34-1.02.58-.13.09-.25.19-.37.26-.86.68-1.9,1.05-2.94,1.05-.16,0-.32,0-.47-.02-1.18-.08-2.34-.76-3.12-1.82-.33-.44-.67-.9-1.06-1.14-.19-.13-.41-.19-.63-.19-.49,0-1.07.29-1.64.81-1.17,1.08-1.76,2.69-2.38,4.4-.56,1.55-1.14,3.15-2.19,4.37-.16.19-.6.67-1.11.88-.32.16-.66.24-1.01.24-1.15,0-2.04-.91-2.24-1.78-.24-1.11-.12-1.93.01-2.87l.04-.27c.24-1.61.45-3.32.17-4.86-.06-.2-.11-.2-.17-.2-.07,0-.17.02-.3.07-.87.55-1.38,1.55-1.88,2.52-.17.32-.34.65-.51.95l-.17.32c-.66,1.22-1.28,2.38-2.22,3.55h0s0,.02,0,.02c-.04.04-.07.07-.1.11-.08.09-.15.16-.34.3-.32.25-.71.39-1.12.39-.91,0-1.69-.62-1.84-1.48-.11-.49-.03-1.09.11-1.57-.43.1-.83.15-1.19.16-.66.88-1.39,1.56-2.22,2.08-.68.45-1.43.73-2.21.81-.59.49-1.25.92-1.95,1.29-1.63.87-3.47,1.31-5.5,1.31-.34,0-.7-.01-1.06-.04-.4.36-.81.69-1.22.96-2.27,1.58-5,2.45-7.68,2.45-1.13,0-2.24-.15-3.29-.46-2.21-.62-4.3-1.97-6.19-3.99-2.81-3.09-4.33-6.23-4.5-9.32v-.04c.14-.9.81-1.36,2-1.36.67,0,1.39.14,1.97.25.16.03.31.06.45.09,3.02.7,6.04,2.26,9.48,4.91.73.53,2.06,1.47,2.74,1.93,1.61,1.07,2.98,1.8,4.3,2.27.34-.37.65-.77.92-1.18.77-1.33.61-2.44-.52-3.59-1.19-1.25-2.72-2.26-4.21-3.23l-.26-.17c-1.88-1.22-3.91-2.36-5.83-3.43-.45-.26-.93-.5-1.44-.76-1.8-.92-3.83-1.95-4.78-3.96-.91-2.4,1.05-4.62,3-5.79,2.27-1.49,5.04-2.34,7.6-2.34M34.28,22.87c.54,0,1.24-.25,2.08-.73.11-.32.19-.64.26-.97.18-.91.07-1.71-.28-2.14-.21-.25-.51-.38-.89-.38-.13,0-.28.02-.44.05-.82.17-1.63.73-1.99,1.18-.32.43-.41,1.06-.24,1.67.17.59.55,1.05,1.03,1.24.14.05.3.08.47.08M38.14,20.91c.19-.15.36-.29.52-.43.08-.08.16-.15.25-.24.32-.3.69-.65.86-.96h-.04s-.05,0-.06,0c-.52.17-1.03.56-1.47,1.12-.01.16-.03.33-.06.5M16.2,30.98c2.23,0,4.5-.73,6.32-2.02-1.45-.41-2.85-.99-4.14-1.67-2.11-1.11-4.04-2.55-5.78-3.97-1.73-1.41-3.49-2.84-5.57-3.53-.75-.25-1.58-.45-2.35-.49h-.02c-.21,0-.37.05-.41.09-.13,0-.04.75.08,1.25.61,2.72,2.3,5.08,4.28,7.01,1.59,1.53,3.52,2.7,5.59,3.13.66.14,1.33.21,2.01.21M18.42,0c-3.11,0-6.46,1.02-9.19,2.8-3.84,2.33-5.49,6.01-4.21,9.39l.04.11.05.11c.55,1.17,1.31,2.09,2.16,2.85-.71-.14-1.47-.25-2.27-.25C1.77,15,.31,17.11.04,18.91l-.03.22v.25s0,.08,0,.08v.1c.21,3.8,1.99,7.56,5.28,11.18,2.3,2.46,4.85,4.09,7.6,4.86,1.3.38,2.69.57,4.1.57,3.29,0,6.63-1.06,9.39-2.99.18-.12.36-.25.54-.39h.02c2.52,0,4.85-.56,6.91-1.67.62-.33,1.22-.7,1.78-1.11.92-.21,1.79-.59,2.61-1.13.03-.02.06-.04.1-.06.88.85,2.09,1.36,3.4,1.36,1.08,0,2.09-.34,2.94-1,.34-.26.54-.45.7-.62l.04-.05h0s.16-.16.16-.16c.74,2.08,2.79,3.58,5.01,3.58.77,0,1.52-.17,2.24-.5,1-.43,1.73-1.16,2.18-1.7,1.39-1.62,2.09-3.56,2.71-5.28.34-.92.66-1.8,1.03-2.46,1.26,1.36,2.96,2.22,4.71,2.36.23.02.48.04.73.04,1.67,0,3.34-.57,4.7-1.62.13-.09.26-.18.39-.28.08-.06.15-.11.22-.16,1.46-.5,2.36-1.94,2.16-3.49-.22-1.61-1.6-2.81-3.21-2.81h-.49l-.37.11c-1.01.26-1.74.77-2.23,1.12-.07.05-.14.1-.21.15l-.07.05-.07.06c-.3.23-.69.35-.93.35-.09-.15-.23-.38-.33-.56-.67-1.16-2.04-3.52-5.28-3.52-.18,0-.36,0-.54.02h-.1s-.1.02-.1.02c-2,.28-3.56,1.11-4.81,2.21-1.01-1.54-2.78-2.55-4.78-2.55-.57,0-1.14.09-1.7.26-1.12.33-2.05.91-2.83,1.53-.2-.03-.41-.04-.62-.04-.48,0-.92.07-1.33.22-.52-.22-1.1-.34-1.69-.34-.25,0-.5.02-.75.06-1.4-1.27-3.25-1.97-5.21-1.97-1.85,0-3.67.61-5.12,1.73l-.02.02-.02.02c-.62.49-1.16,1.06-1.61,1.7-.81-.68-1.6-1.25-2.27-1.73-.66-.46-1.34-.91-2.04-1.34.18-.53.22-1.08.13-1.6.07-.03.13-.06.19-.08,1.83-.82,4.33-1.93,4.91-4.48.18-.8.28-2.34-1.01-3.95l-.08-.12-.22-.22-.05-.05-.06-.06c-2.2-2-5.07-3.05-8.3-3.05h0ZM14.89,9.35c.62-.4,1.36-.81,2.19-1.12-.44.5-.77,1.07-.97,1.68-.32-.15-.63-.29-.93-.42l-.18-.08s-.07-.03-.11-.05h0Z"/>
      </g>
    </g>
  </g>
</svg>