<?xml version="1.0" encoding="UTF-8"?>
<svg id="Layer_2" data-name="Layer 2" xmlns="http://www.w3.org/2000/svg" viewBox="0 0 65.68 30.17">
  <g id="A4.Cover.Pink">
    <g id="B">
      <path d="M65.45,16.05h-.06c-.49.12-.89.4-1.28.68-.1.07-.19.13-.29.2-.8.6-1.82.96-2.75.96-.69,0-1.28-.18-1.78-.54-.49-.39-.82-.97-1.14-1.53-.57-.99-1.16-2.01-2.67-2.01-.11,0-.21,0-.32.01-3.48.49-5.15,3.6-6.62,6.34-.14.26-.28.52-.41.77-.05-.73-.08-1.5-.11-2.19v-.23c-.02-.18-.02-.35-.03-.53-.04-.75-.07-1.46-.19-2.27-.15-1.26-1.28-2.21-2.64-2.21-.28,0-.56.04-.83.13-1.34.39-2.37,1.45-3.27,2.38h0c-.07-.24-.2-.39-.3-.49-.21-.25-.59-.28-.75-.28-.1,0-.28,0-.4.08-.43.21-.56.44-.74.74v.02s-.02.01-.02.01v.02c-.14.36-.28.73-.42,1.09-.36.94-.73,1.92-1.07,2.89-.31.11-.6.19-.89.26.29-.46.59-.99.91-1.61l.14-.29c.24-.5.47-.96.64-1.53h0v-.02c.14-.71-.04-1.13-.23-1.35-.22-.27-.56-.42-.95-.42-.54,0-1.11.28-1.51.76-.1.1-.21.21-.31.32-.13-.71-.45-1.31-.94-1.79-.85-.78-1.99-1.2-3.21-1.2s-2.36.39-3.3,1.11c-1.34,1.07-2.14,2.77-2.14,4.56-.03,2.32,1.42,4.34,3.59,5.07-1.4.73-3.03,1.13-4.63,1.13h-.19c1.33-1.95,1.58-4,.68-5.82-1.04-2.16-3.22-3.73-4.81-4.86-1.87-1.29-3.92-2.52-6.08-3.64-1.12-.6-2.22-1.13-3.18-1.55-.18-.09-.36-.17-.55-.26-1.16-.54-2.16-1.01-2.86-1.93-.27-.94,1.01-1.93,1.78-2.53,1.77-1.33,4.58-2.89,7.97-2.89.33,0,.66.01.98.04,1.05.14,2.23.39,2.93,1.11.29.38.39.73.31,1.06-.22.86-1.7,1.5-2.89,2.02-.58.25-1.08.47-1.41.69-.74.4-1.2.94-1.31,1.55-.1.56.1,1.14.59,1.7.07.08.16.12.26.12.14,0,.26-.09.32-.21.05-.12.03-.26-.07-.36-.39-.4-.57-.78-.52-1.15.06-.54.58-.95,1.01-1.21.34-.25.92-.51,1.54-.78,1.38-.62,2.95-1.31,3.2-2.4.11-.48-.06-.98-.49-1.5h0s0-.02,0-.02c-1.64-1.49-3.81-2.27-6.29-2.27s-5.33.85-7.6,2.34c-1.95,1.17-3.9,3.39-3,5.79.94,2.01,2.98,3.04,4.78,3.96.51.26.99.5,1.44.76,1.92,1.07,3.94,2.21,5.83,3.43l.26.17c1.48.97,3.02,1.98,4.21,3.23,1.13,1.15,1.29,2.26.52,3.59-.27.41-.58.81-.92,1.18-1.33-.47-2.7-1.19-4.3-2.27-.69-.46-2.01-1.4-2.74-1.93-3.44-2.65-6.46-4.21-9.48-4.91-.14-.02-.29-.05-.45-.09-.58-.11-1.29-.25-1.97-.25-1.19,0-1.86.46-1.99,1.36v.02s0,.02,0,.02c.17,3.09,1.68,6.23,4.5,9.32,1.9,2.03,3.98,3.37,6.19,3.99,1.05.3,2.16.46,3.29.46,2.68,0,5.41-.87,7.68-2.45.41-.28.82-.6,1.22-.96.36.02.71.04,1.06.04,2.02,0,3.87-.44,5.5-1.31.7-.37,1.36-.8,1.95-1.29.79-.09,1.53-.36,2.21-.81.82-.52,1.55-1.2,2.22-2.08.36,0,.75-.06,1.19-.16-.13.48-.21,1.08-.11,1.57.16.85.93,1.48,1.84,1.48.41,0,.8-.13,1.12-.39.19-.14.26-.21.34-.3.03-.03.06-.06.1-.11h0s0-.02,0-.02c.94-1.18,1.56-2.33,2.22-3.55l.17-.32c.17-.3.34-.63.51-.95.5-.97,1.01-1.97,1.88-2.52.13-.04.23-.07.3-.07.05,0,.11,0,.17.2.28,1.54.06,3.24-.17,4.86l-.04.27c-.13.95-.25,1.77-.01,2.87.2.88,1.09,1.78,2.24,1.78.34,0,.68-.08,1.01-.24.51-.21.95-.69,1.11-.88,1.05-1.23,1.63-2.83,2.19-4.37.62-1.71,1.21-3.32,2.38-4.4.57-.53,1.15-.81,1.64-.81.23,0,.44.06.63.19.39.24.73.7,1.06,1.14.77,1.07,1.94,1.75,3.12,1.82.15.02.31.02.47.02,1.04,0,2.08-.37,2.94-1.05.12-.08.24-.17.37-.26.34-.24.65-.48,1.02-.58.11-.03.19-.14.17-.26-.02-.12-.12-.21-.24-.21ZM13.2,27.98c-.68,0-1.35-.06-2.01-.21-2.07-.43-3.99-1.6-5.59-3.13-1.98-1.93-3.68-4.29-4.28-7.01-.12-.5-.21-1.24-.08-1.25.04-.04.19-.09.41-.09h.02c.77.04,1.61.24,2.35.49,2.09.7,3.84,2.13,5.57,3.53,1.74,1.42,3.67,2.85,5.78,3.97,1.29.68,2.69,1.26,4.14,1.67-1.82,1.29-4.09,2.02-6.32,2.02ZM33.62,18.16c-.06.33-.15.65-.26.97-.85.49-1.54.73-2.08.73-.17,0-.33-.03-.47-.08-.47-.19-.86-.66-1.03-1.24-.17-.61-.09-1.24.24-1.67.36-.45,1.17-1.01,1.99-1.18.15-.03.3-.05.44-.05.38,0,.68.13.89.38.35.43.46,1.23.28,2.14ZM35.14,17.91c.03-.17.05-.34.06-.5.44-.56.94-.95,1.47-1.12,0,0,.03,0,.06,0h.04c-.17.31-.54.66-.86.96-.09.09-.17.16-.25.24-.15.13-.33.28-.52.43Z"/>
    </g>
  </g>
</svg>